<svg xmlns="http://www.w3.org/2000/svg" xmlns:xlink="http://www.w3.org/1999/xlink" viewBox="0 0 65.988 40.988" fill="#fff" fill-rule="evenodd" stroke="#000" stroke-linecap="round" stroke-linejoin="round"><use xlink:href="#B" x=".494" y=".494"/><defs><linearGradient id="A" x1="6.03%" y1="7.21%" x2="95.70%" y2="99.46%"><stop offset="0%" stop-color="#f60e0e"/><stop offset="1%" stop-color="#f66629"/></linearGradient></defs><symbol id="B" overflow="visible"><path d="M27.961 8.32c-.696-.903-1.074-2.012-1.073-3.153A5.17 5.17 0 0 1 32.055 0a5.17 5.17 0 0 1 5.167 5.167 5.16 5.16 0 0 1-1.057 3.132l8.811 12.078 8.746-5.774a5.05 5.05 0 0 1-.053-.734 5.17 5.17 0 0 1 5.167-5.167 5.17 5.17 0 0 1 5.167 5.167c0 2.506-1.778 4.599-4.149 5.068l-2.892 11.266c1.315.974 2.089 2.513 2.088 4.149a5.17 5.17 0 0 1-5.167 5.167 5.17 5.17 0 0 1-5.167-5.167c0-.926.249-1.836.721-2.633L44.2 24.537l-7.533 4.989c3.777.339 7.647 1.087 11.762 2.211-.533.773-.717 1.729-.626 2.826-11.445-3.026-20.744-2.984-31.508-.003.051-1.013-.059-1.976-.507-2.835 4.048-1.16 7.904-1.901 11.7-2.225L19.91 24.49l-5.216 7.172c.494.794.755 1.719.755 2.687a5.17 5.17 0 0 1-5.167 5.167 5.17 5.17 0 0 1-5.167-5.167c-.001-1.574.716-3.063 1.949-4.043L4.199 18.943A5.17 5.17 0 0 1 0 13.868a5.17 5.17 0 0 1 5.167-5.167 5.17 5.17 0 0 1 5.167 5.167c0 .239-.017.478-.049.713l8.877 5.863zm23.78 21.332l.01-.005L52.818 32c-.924.418-1.518 1.339-1.518 2.353 0 1.426 1.158 2.582 2.583 2.582s2.582-1.156 2.582-2.582-1.156-2.583-2.582-2.583v-2.584l2.709-10.664 1.121-2.328a2.58 2.58 0 0 0 1.121.256c1.426 0 2.583-1.156 2.583-2.582s-1.158-2.583-2.583-2.583-2.583 1.156-2.583 2.583a2.59 2.59 0 0 0 .682 1.749l-1.893 1.739v.01l-8.262 5.471zm-34.325-6.802L9.025 17.29l-1.928-1.716a2.58 2.58 0 0 0 .653-1.716c0-1.427-1.158-2.583-2.583-2.583s-2.582 1.156-2.582 2.583a2.58 2.58 0 0 0 2.582 2.582c.371 0 .738-.079 1.087-.234l1.073 2.339 2.675 10.647.141 2.571a2.58 2.58 0 0 0-2.44 2.569c0 1.426 1.156 2.583 2.582 2.583s2.583-1.156 2.583-2.583c0-1.004-.581-1.917-1.489-2.341l1.094-2.351zm24.978-.771l-8.763-11.996.003-.002-.79-2.454a2.59 2.59 0 0 0 1.792-2.47c0-1.426-1.158-2.583-2.583-2.583S29.47 3.741 29.47 5.168c0 1.106.706 2.092 1.756 2.447l-.827 2.442.003.003-8.753 12.03 10.361 6.843z" stroke="none" fill="url(#A)" fill-rule="nonzero"/></symbol></svg>