<?xml version="1.0" encoding="UTF-8"?>
<svg xmlns="http://www.w3.org/2000/svg" xmlns:xlink="http://www.w3.org/1999/xlink" width="114pt" height="115pt" viewBox="0 0 114 115" version="1.1">
<g id="surface3">
<path style=" stroke:none;fill-rule:nonzero;fill:rgb(255, 255, 255);fill-opacity:1;" d="M 37.253906 1.949219 C 34.339844 2.960938 30.59375 4.707031 28.929688 5.714844 C 24.90625 8.136719 19.21875 12.238281 19.21875 12.777344 C 19.21875 12.980469 20.261719 13.71875 21.507812 14.390625 C 22.6875 15.0625 24.699219 16.679688 25.878906 17.957031 L 28.027344 20.308594 L 32.050781 17.550781 C 34.273438 16.074219 38.570312 13.921875 41.691406 12.777344 C 47.933594 10.492188 49.738281 8.878906 49.738281 5.917969 C 49.738281 3.496094 46.410156 0 44.050781 0 C 43.148438 0.0664062 40.097656 0.941406 37.253906 1.949219 Z M 37.253906 1.949219 "/>
<path style=" stroke:none;fill-rule:nonzero;fill:rgb(255, 255, 255);fill-opacity:1;" d="M 66.523438 1.679688 C 63.402344 5.515625 65.066406 9.347656 70.753906 11.164062 C 75.609375 12.710938 81.644531 15.667969 84.351562 17.820312 L 86.5 19.636719 L 89.480469 17.082031 C 91.078125 15.601562 93.160156 13.988281 94.058594 13.382812 L 95.792969 12.308594 L 91.980469 9.414062 C 86.777344 5.378906 75.957031 0.472656 71.519531 0.132812 C 68.328125 -0.132812 67.84375 0 66.523438 1.679688 Z M 66.523438 1.679688 "/>
<path style=" stroke:none;fill-rule:nonzero;fill:rgb(255, 255, 255);fill-opacity:1;" d="M 7.082031 19.234375 C 0.703125 22.460938 -1.242188 28.648438 2.019531 34.972656 C 5 40.621094 12.355469 42.703125 18.179688 39.476562 C 26.640625 34.835938 26.851562 23.335938 18.457031 19.167969 C 15.890625 17.820312 9.71875 17.890625 7.082031 19.234375 Z M 7.082031 19.234375 "/>
<path style=" stroke:none;fill-rule:nonzero;fill:rgb(255, 255, 255);fill-opacity:1;" d="M 0.910156 43.445312 C 0.703125 44.050781 0.285156 47.414062 0.078125 50.976562 C -0.339844 58.171875 0.980469 67.519531 2.851562 70.277344 C 4.445312 72.632812 8.398438 73.167969 10.757812 71.488281 C 12.421875 70.277344 12.632812 69.738281 12.492188 66.511719 C 12.355469 64.492188 12.214844 59.179688 12.144531 54.675781 L 11.9375 46.46875 L 9.855469 46 C 8.746094 45.796875 6.390625 44.855469 4.722656 43.980469 C 1.117188 42.097656 1.464844 42.097656 0.910156 43.445312 Z M 0.910156 43.445312 "/>
<path style=" stroke:none;fill-rule:nonzero;fill:rgb(255, 255, 255);fill-opacity:1;" d="M 110.429688 43.714844 C 109.320312 44.453125 106.960938 45.460938 105.296875 45.867188 L 102.246094 46.605469 L 102.660156 50.773438 C 102.867188 53.0625 102.800781 56.894531 102.382812 59.25 C 102.035156 61.601562 101.550781 64.832031 101.34375 66.378906 C 100.925781 68.796875 101.132812 69.402344 102.730469 70.949219 C 104.324219 72.496094 105.019531 72.699219 107.097656 72.429688 C 110.707031 71.824219 111.953125 70.34375 113.132812 65.167969 C 114.660156 58.777344 114.519531 42.367188 112.925781 42.367188 C 112.71875 42.367188 111.609375 42.972656 110.429688 43.714844 Z M 110.429688 43.714844 "/>
<path style=" stroke:none;fill-rule:nonzero;fill:rgb(255, 255, 255);fill-opacity:1;" d="M 18.804688 84.0625 C 16.722656 84.871094 15.058594 87.359375 15.058594 89.714844 C 15.058594 92.132812 19.289062 96.238281 26.296875 100.675781 C 30.316406 103.164062 37.878906 106.929688 38.988281 106.929688 C 39.195312 106.929688 39.335938 106.054688 39.335938 105.046875 C 39.335938 103.972656 39.820312 101.550781 40.445312 99.597656 C 41 97.648438 41.414062 95.96875 41.277344 95.902344 C 41.136719 95.765625 38.988281 94.621094 36.351562 93.210938 C 33.785156 91.867188 29.832031 89.242188 27.613281 87.425781 C 23.242188 83.863281 21.164062 83.121094 18.804688 84.0625 Z M 18.804688 84.0625 "/>
<path style=" stroke:none;fill-rule:nonzero;fill:rgb(255, 255, 255);fill-opacity:1;" d="M 92.046875 83.863281 C 91.492188 84.0625 89.203125 85.746094 86.914062 87.5625 C 84.695312 89.445312 80.742188 91.867188 78.246094 93.007812 C 75.75 94.21875 73.597656 95.160156 73.460938 95.226562 C 73.320312 95.296875 73.738281 97.109375 74.363281 99.195312 C 75.054688 101.28125 75.402344 103.769531 75.195312 104.644531 C 74.777344 106.796875 75.75 106.726562 81.367188 104.238281 C 86.984375 101.820312 93.644531 97.246094 97.113281 93.546875 C 99.957031 90.453125 100.441406 87.761719 98.5 85.476562 C 97.179688 83.996094 93.851562 83.121094 92.046875 83.863281 Z M 92.046875 83.863281 "/>
<path style=" stroke:none;fill-rule:nonzero;fill:rgb(255, 255, 255);fill-opacity:1;" d="M 53.554688 93.144531 C 45.855469 95.832031 43.289062 104.914062 48.421875 111.300781 C 50.570312 113.925781 53.414062 115 57.921875 115 C 61.320312 115 62.5 114.664062 64.789062 113.050781 C 71.519531 108.34375 71.449219 99.195312 64.652344 94.757812 C 61.183594 92.402344 57.160156 91.867188 53.554688 93.144531 Z M 53.554688 93.144531 "/>
<path style=" stroke:none;fill-rule:nonzero;fill:rgb(255, 255, 255);fill-opacity:1;" d="M 55.9375 33.949219 C 55.421875 33.300781 55.140625 32.503906 55.140625 31.683594 C 55.140625 29.636719 56.859375 27.972656 58.972656 27.972656 C 61.085938 27.972656 62.800781 29.632812 62.800781 31.683594 C 62.800781 32.519531 62.515625 33.304688 62.019531 33.933594 L 68.550781 42.617188 L 75.03125 38.464844 C 75.007812 38.292969 74.992188 38.117188 74.992188 37.9375 C 74.992188 35.890625 76.710938 34.226562 78.824219 34.226562 C 80.9375 34.226562 82.652344 35.890625 82.652344 37.9375 C 82.652344 39.738281 81.335938 41.242188 79.578125 41.582031 L 77.433594 49.679688 C 78.410156 50.378906 78.984375 51.484375 78.980469 52.660156 C 78.980469 54.710938 77.265625 56.375 75.152344 56.375 C 73.039062 56.375 71.320312 54.710938 71.320312 52.660156 C 71.320312 51.996094 71.507812 51.339844 71.855469 50.769531 L 67.976562 45.605469 L 62.390625 49.191406 C 65.191406 49.433594 68.058594 49.972656 71.109375 50.78125 C 70.714844 51.335938 70.578125 52.023438 70.644531 52.8125 C 62.160156 50.636719 55.269531 50.667969 47.289062 52.808594 C 47.328125 52.082031 47.246094 51.390625 46.914062 50.773438 C 49.914062 49.9375 52.773438 49.40625 55.585938 49.171875 L 49.96875 45.574219 L 46.101562 50.726562 C 46.46875 51.296875 46.664062 51.964844 46.664062 52.660156 C 46.664062 54.707031 44.945312 56.371094 42.832031 56.371094 C 40.71875 56.371094 39.003906 54.710938 39.003906 52.660156 C 39 51.527344 39.535156 50.457031 40.449219 49.753906 L 38.324219 41.585938 C 36.550781 41.257812 35.210938 39.75 35.210938 37.9375 C 35.210938 35.886719 36.925781 34.222656 39.042969 34.222656 C 41.15625 34.222656 42.871094 35.886719 42.871094 37.9375 C 42.871094 38.109375 42.859375 38.28125 42.835938 38.449219 L 49.414062 42.664062 Z M 73.566406 49.28125 L 73.570312 49.277344 L 74.363281 50.96875 C 73.679688 51.269531 73.238281 51.933594 73.238281 52.660156 C 73.238281 53.6875 74.097656 54.515625 75.152344 54.515625 C 76.210938 54.515625 77.066406 53.6875 77.066406 52.660156 C 77.066406 51.636719 76.210938 50.804688 75.152344 50.804688 L 75.152344 48.945312 L 77.160156 41.28125 L 77.992188 39.609375 C 78.25 39.730469 78.535156 39.792969 78.824219 39.792969 C 79.878906 39.792969 80.738281 38.960938 80.738281 37.9375 C 80.738281 36.910156 79.878906 36.082031 78.824219 36.082031 C 77.765625 36.082031 76.910156 36.910156 76.910156 37.9375 C 76.910156 38.402344 77.089844 38.851562 77.414062 39.195312 L 76.011719 40.445312 L 76.011719 40.449219 L 69.886719 44.382812 Z M 48.121094 44.394531 L 41.902344 40.398438 L 40.472656 39.164062 C 40.785156 38.824219 40.957031 38.386719 40.957031 37.929688 C 40.957031 36.90625 40.097656 36.074219 39.039062 36.074219 C 37.984375 36.074219 37.125 36.90625 37.125 37.929688 C 37.125 38.957031 37.984375 39.785156 39.039062 39.785156 C 39.316406 39.785156 39.585938 39.730469 39.847656 39.617188 L 40.640625 41.300781 L 42.625 48.953125 L 42.730469 50.800781 C 41.71875 50.851562 40.921875 51.664062 40.921875 52.644531 C 40.921875 53.671875 41.777344 54.503906 42.835938 54.503906 C 43.890625 54.503906 44.75 53.671875 44.75 52.644531 C 44.75 51.925781 44.320312 51.269531 43.644531 50.964844 L 44.457031 49.273438 Z M 66.636719 43.839844 L 60.140625 35.21875 L 60.144531 35.214844 L 59.558594 33.453125 C 60.351562 33.203125 60.886719 32.484375 60.886719 31.675781 C 60.886719 30.652344 60.027344 29.820312 58.96875 29.820312 C 57.914062 29.820312 57.058594 30.660156 57.058594 31.683594 C 57.058594 32.480469 57.582031 33.1875 58.359375 33.445312 L 57.746094 35.199219 L 57.746094 35.203125 L 51.257812 43.847656 L 58.9375 48.765625 Z M 66.636719 43.839844 "/>
<path style=" stroke:none;fill-rule:nonzero;fill:rgb(255, 255, 255);fill-opacity:1;" d="M 58.601562 85.300781 L 40.789062 61.554688 L 53.066406 53.734375 L 64.125 53.703125 L 76.367188 61.566406 Z M 46.019531 62.441406 L 54.777344 56.835938 L 62.273438 56.839844 L 71.054688 62.453125 L 58.5 79.089844 Z M 46.019531 62.441406 "/>
<path style=" stroke:none;fill-rule:nonzero;fill:rgb(255, 255, 255);fill-opacity:1;" d="M 93.925781 17.136719 C 90.597656 18.816406 88.378906 22.71875 88.378906 27.023438 C 88.378906 35.429688 97.878906 40.808594 105.71875 36.773438 C 110.78125 34.21875 112.859375 26.484375 109.949219 21.238281 C 107.3125 16.328125 99.335938 14.3125 93.925781 17.136719 Z M 93.925781 17.136719 "/>
</g>
</svg>
